<svg xmlns="http://www.w3.org/2000/svg" viewBox="0 0 64 64" fill="none">
  <!-- Background circle -->
  <circle cx="32" cy="32" r="30" fill="#10B981"/>
  <!-- Rx Symbol in white -->
  <g fill="white">
    <!-- R -->
    <path d="M18 18v28h8V32h6l5 14h8l-5.5-12c3-1.5 5-4 5-8.5 0-5.5-4-10.5-10.5-10.5H18zm8 7h7c3 0 4.5 1.5 4.5 4s-1.5 4-4.5 4h-7v-8z"/>
    <!-- x -->
    <path d="M44 32l7 9h-6l-5-6-5 6h-6l7-9-7-9h6l5 6 5-6h6l-7 9z"/>
  </g>
  <!-- Pill accent -->
  <rect x="42" y="42" width="14" height="6" rx="3" fill="#0081F1" opacity="0.9"/>
</svg>
